<?xml version="1.0" standalone="no"?>
 <!DOCTYPE svg PUBLIC "-//W3C//DTD SVG 1.1//EN" 
 "http://www.w3.org/Graphics/SVG/1.1/DTD/svg11.dtd"> 
<svg xmlns="http://www.w3.org/2000/svg" version="1.1" 
    width="3.429cm" height="1.8415cm" viewBox="0 0 13500 7250 ">
<title>SVG Picture created as light-F_Cu.svg date 2015/08/17 12:04:41 </title>
  <desc>Picture generated by PCBNEW </desc>
<g style="fill:#000000; fill-opacity:1;stroke:#000000; stroke-opacity:1;
stroke-linecap:round; stroke-linejoin:round; "
 transform="translate(0 0) scale(1 1)">
</g>
<g style="fill:#808000; fill-opacity:0.0; 
stroke:#808000; stroke-width:19.685; stroke-opacity:1; 
stroke-linecap:round; stroke-linejoin:round;">
</g>
<g style="fill:#808000; fill-opacity:1.0; 
stroke:#808000; stroke-width:19.685; stroke-opacity:1; 
stroke-linecap:round; stroke-linejoin:round;">
<circle cx="10000" cy="5250" r="265.157" /> 
<circle cx="13000" cy="5250" r="265.157" /> 
<polyline style="fill-rule:evenodd;"
points="6709,1959
7290,1959
7290,2540
6709,2540
6709,1959
" /> 
<circle cx="8000" cy="2250" r="290.157" /> 
<circle cx="7000" cy="3250" r="290.157" /> 
<circle cx="8000" cy="3250" r="290.157" /> 
<circle cx="7000" cy="4250" r="290.157" /> 
<circle cx="8000" cy="4250" r="290.157" /> 
<circle cx="7000" cy="5250" r="290.157" /> 
<circle cx="8000" cy="5250" r="290.157" /> 
<circle cx="12000" cy="3000" r="320.157" /> 
<circle cx="11000" cy="3000" r="320.157" /> 
<polyline style="fill-rule:evenodd;"
points="2234,5515
2234,4984
2765,4984
2765,5515
2234,5515
" /> 
<circle cx="3500" cy="5250" r="265.157" /> 
<circle cx="4500" cy="5250" r="265.157" /> 
<circle cx="5500" cy="5250" r="265.157" /> 
<circle cx="5500" cy="2250" r="265.157" /> 
<circle cx="4500" cy="2250" r="265.157" /> 
<circle cx="3500" cy="2250" r="265.157" /> 
<circle cx="2500" cy="2250" r="265.157" /> 
<polyline style="fill-rule:evenodd;"
points="709,2959
1290,2959
1290,3540
709,3540
709,2959
" /> 
<circle cx="1000" cy="4250" r="290.157" /> 
</g>
<g style="fill:#FFFFFF; fill-opacity:1.0; 
stroke:#FFFFFF; stroke-width:19.685; stroke-opacity:1; 
stroke-linecap:round; stroke-linejoin:round;">
<circle cx="10000" cy="5250" r="150.157" /> 
<circle cx="13000" cy="5250" r="150.157" /> 
<circle cx="7000" cy="2250" r="190.157" /> 
<circle cx="8000" cy="2250" r="190.157" /> 
<circle cx="7000" cy="3250" r="190.157" /> 
<circle cx="8000" cy="3250" r="190.157" /> 
<circle cx="7000" cy="4250" r="190.157" /> 
<circle cx="8000" cy="4250" r="190.157" /> 
<circle cx="7000" cy="5250" r="190.157" /> 
<circle cx="8000" cy="5250" r="190.157" /> 
<circle cx="12000" cy="3000" r="150.157" /> 
<circle cx="11000" cy="3000" r="150.157" /> 
<circle cx="2500" cy="5250" r="150.157" /> 
<circle cx="3500" cy="5250" r="150.157" /> 
<circle cx="4500" cy="5250" r="150.157" /> 
<circle cx="5500" cy="5250" r="150.157" /> 
<circle cx="5500" cy="2250" r="150.157" /> 
<circle cx="4500" cy="2250" r="150.157" /> 
<circle cx="3500" cy="2250" r="150.157" /> 
<circle cx="2500" cy="2250" r="150.157" /> 
<circle cx="1000" cy="3250" r="190.157" /> 
<circle cx="1000" cy="4250" r="190.157" /> 
</g> 
</svg>
