<?xml version="1.0" standalone="no"?>
 <!DOCTYPE svg PUBLIC "-//W3C//DTD SVG 1.1//EN" 
 "http://www.w3.org/Graphics/SVG/1.1/DTD/svg11.dtd"> 
<svg xmlns="http://www.w3.org/2000/svg" version="1.1" 
    width="3.429cm" height="1.8415cm" viewBox="0 0 13500 7250 ">
<title>SVG Picture created as light-B_Cu.svg date 2015/08/17 12:04:41 </title>
  <desc>Picture generated by PCBNEW </desc>
<g style="fill:#000000; fill-opacity:1;stroke:#000000; stroke-opacity:1;
stroke-linecap:round; stroke-linejoin:round; "
 transform="translate(0 0) scale(1 1)">
</g>
<g style="fill:#808000; fill-opacity:0.0; 
stroke:#808000; stroke-width:19.685; stroke-opacity:1; 
stroke-linecap:round; stroke-linejoin:round;">
</g>
<g style="fill:#808000; fill-opacity:1.0; 
stroke:#808000; stroke-width:19.685; stroke-opacity:1; 
stroke-linecap:round; stroke-linejoin:round;">
<circle cx="10000" cy="5250" r="265.157" /> 
<circle cx="13000" cy="5250" r="265.157" /> 
<polyline style="fill-rule:evenodd;"
points="6709,1959
7290,1959
7290,2540
6709,2540
6709,1959
" /> 
<circle cx="8000" cy="2250" r="290.157" /> 
<circle cx="7000" cy="3250" r="290.157" /> 
<circle cx="8000" cy="3250" r="290.157" /> 
<circle cx="7000" cy="4250" r="290.157" /> 
<circle cx="8000" cy="4250" r="290.157" /> 
<circle cx="7000" cy="5250" r="290.157" /> 
<circle cx="8000" cy="5250" r="290.157" /> 
<circle cx="12000" cy="3000" r="320.157" /> 
<circle cx="11000" cy="3000" r="320.157" /> 
<polyline style="fill-rule:evenodd;"
points="2234,5515
2234,4984
2765,4984
2765,5515
2234,5515
" /> 
<circle cx="3500" cy="5250" r="265.157" /> 
<circle cx="4500" cy="5250" r="265.157" /> 
<circle cx="5500" cy="5250" r="265.157" /> 
<circle cx="5500" cy="2250" r="265.157" /> 
<circle cx="4500" cy="2250" r="265.157" /> 
<circle cx="3500" cy="2250" r="265.157" /> 
<circle cx="2500" cy="2250" r="265.157" /> 
<polyline style="fill-rule:evenodd;"
points="709,2959
1290,2959
1290,3540
709,3540
709,2959
" /> 
<circle cx="1000" cy="4250" r="290.157" /> 
</g>
<g style="fill:#00A000; fill-opacity:1.0; 
stroke:#00A000; stroke-width:100; stroke-opacity:1; 
stroke-linecap:round; stroke-linejoin:round;">
<path d="M2500 2250
L2500 1750
" />
<path d="M8250 250
L11000 3000
" />
<path d="M4000 250
L8250 250
" />
<path d="M2500 1750
L4000 250
" />
<path d="M7000 5250
L6750 5250
" />
<path d="M4750 3250
L2000 3250
" />
<path d="M6750 5250
L4750 3250
" />
<path d="M1000 3250
L2000 3250
" />
<path d="M2500 2750
L2500 2250
" />
<path d="M2000 3250
L2500 2750
" />
<path d="M7000 3250
L5500 3250
" />
<path d="M5500 3250
L4500 2250
" />
<path d="M7000 4250
L7500 4750
" />
<path d="M4500 5750
L4500 5250
" />
<path d="M5250 6500
L4500 5750
" />
<path d="M8500 6500
L5250 6500
" />
<path d="M8750 6250
L8500 6500
" />
<path d="M8750 5000
L8750 6250
" />
<path d="M8500 4750
L8750 5000
" />
<path d="M7500 4750
L8500 4750
" />
<path d="M8000 3250
L8250 3250
" />
<path d="M3500 1750
L3500 2250
" />
<path d="M4250 1000
L3500 1750
" />
<path d="M8000 1000
L4250 1000
" />
<path d="M8750 1750
L8000 1000
" />
<path d="M8750 2750
L8750 1750
" />
<path d="M8250 3250
L8750 2750
" />
<path d="M8000 2250
L8000 2000
" />
<path d="M6250 1500
L5500 2250
" />
<path d="M7500 1500
L6250 1500
" />
<path d="M8000 2000
L7500 1500
" />
<path d="M8000 4250
L9500 4250
" />
<path d="M10000 4750
L10000 5250
" />
<path d="M9500 4250
L10000 4750
" />
<path d="M10000 5250
L10000 6250
" />
<path d="M10000 6250
L9250 7000
" />
<path d="M9250 7000
L4750 7000
" />
<path d="M4750 7000
L3500 5750
" />
<path d="M3500 5750
L3500 5250
" />
<path d="M10000 5250
L11000 5250
" />
<path d="M12000 4250
L12000 3000
" />
<path d="M11000 5250
L12000 4250
" />
</g>
<g style="fill:#00A000; fill-opacity:1.0; 
stroke:#00A000; stroke-width:19.685; stroke-opacity:1; 
stroke-linecap:round; stroke-linejoin:round;">
<polyline style="fill-rule:evenodd;"
points="8450,6125
8375,6200
8315,6200
8315,5635
8000,5320
7684,5635
7712,5731
7918,5804
8136,5793
8287,5731
8315,5635
8315,6200
6029,6200
6029,5325
6018,5117
5960,4977
5867,4952
5797,5023
5797,4882
5772,4789
5575,4720
5367,4731
5227,4789
5202,4882
5500,5179
5797,4882
5797,5023
5570,5250
5867,5547
5960,5522
6029,5325
6029,6200
5797,6200
5797,5617
5500,5320
5202,5617
5227,5710
5424,5779
5632,5768
5772,5710
5797,5617
5797,6200
5374,6200
4833,5659
4944,5547
4997,5421
5039,5522
5132,5547
5429,5250
5132,4952
5039,4977
5000,5087
4945,4953
4797,4805
4604,4725
4396,4724
4203,4804
4055,4952
3999,5085
3945,4953
3797,4805
3604,4725
3396,4724
3203,4804
3055,4952
3025,5024
3025,4925
2987,4833
2916,4763
2824,4725
2725,4724
2175,4724
2083,4762
2013,4833
1975,4925
1974,5024
1974,5574
2012,5666
2083,5736
2175,5774
2274,5775
2824,5775
2916,5737
2986,5666
3024,5574
3025,5475
3025,5475
3054,5547
3200,5692
3200,5750
3222,5864
3287,5962
4525,7200
1554,7200
1554,4331
1543,4113
1481,3962
1385,3934
1070,4250
1385,4565
1481,4537
1554,4331
1554,7200
1315,7200
1315,4635
1000,4320
929,4391
929,4250
614,3934
518,3962
445,4168
456,4386
518,4537
614,4565
929,4250
929,4391
684,4635
712,4731
918,4804
1136,4793
1287,4731
1315,4635
1315,7200
50,7200
50,50
3775,50
2287,1537
2222,1635
2200,1750
2200,1807
2055,1952
1975,2145
1974,2353
2054,2547
2166,2659
1875,2950
1550,2950
1550,2900
1512,2808
1441,2738
1349,2700
1250,2699
650,2699
558,2737
488,2808
450,2900
449,2999
449,3599
487,3691
558,3761
650,3799
703,3800
684,3864
1000,4179
1315,3864
1296,3800
1349,3800
1441,3762
1511,3691
1549,3599
1549,3550
2000,3550
4625,3550
6460,5384
6533,5561
6688,5715
6890,5799
7108,5800
7311,5716
7465,5561
7497,5486
7518,5537
7614,5565
7929,5250
7923,5244
7994,5173
8000,5179
8005,5173
8076,5244
8070,5250
8385,5565
8450,5546
8450,6125
" /> 
</g>
<g style="fill:#00A000; fill-opacity:0.0; 
stroke:#00A000; stroke-width:100; stroke-opacity:1; 
stroke-linecap:round; stroke-linejoin:round;">
<polyline fill="none;"
points="8450,6125
8375,6200
8315,6200
8315,5635
8000,5320
7684,5635
7712,5731
7918,5804
8136,5793
8287,5731
8315,5635
8315,6200
6029,6200
6029,5325
6018,5117
5960,4977
5867,4952
5797,5023
5797,4882
5772,4789
5575,4720
5367,4731
5227,4789
5202,4882
5500,5179
5797,4882
5797,5023
5570,5250
5867,5547
5960,5522
6029,5325
6029,6200
5797,6200
5797,5617
5500,5320
5202,5617
5227,5710
5424,5779
5632,5768
5772,5710
5797,5617
5797,6200
5374,6200
4833,5659
4944,5547
4997,5421
5039,5522
5132,5547
5429,5250
5132,4952
5039,4977
5000,5087
4945,4953
4797,4805
4604,4725
4396,4724
4203,4804
4055,4952
3999,5085
3945,4953
3797,4805
3604,4725
3396,4724
3203,4804
3055,4952
3025,5024
3025,4925
2987,4833
2916,4763
2824,4725
2725,4724
2175,4724
2083,4762
2013,4833
1975,4925
1974,5024
1974,5574
2012,5666
2083,5736
2175,5774
2274,5775
2824,5775
2916,5737
2986,5666
3024,5574
3025,5475
3025,5475
3054,5547
3200,5692
3200,5750
3222,5864
3287,5962
4525,7200
1554,7200
1554,4331
1543,4113
1481,3962
1385,3934
1070,4250
1385,4565
1481,4537
1554,4331
1554,7200
1315,7200
1315,4635
1000,4320
929,4391
929,4250
614,3934
518,3962
445,4168
456,4386
518,4537
614,4565
929,4250
929,4391
684,4635
712,4731
918,4804
1136,4793
1287,4731
1315,4635
1315,7200
50,7200
50,50
3775,50
2287,1537
2222,1635
2200,1750
2200,1807
2055,1952
1975,2145
1974,2353
2054,2547
2166,2659
1875,2950
1550,2950
1550,2900
1512,2808
1441,2738
1349,2700
1250,2699
650,2699
558,2737
488,2808
450,2900
449,2999
449,3599
487,3691
558,3761
650,3799
703,3800
684,3864
1000,4179
1315,3864
1296,3800
1349,3800
1441,3762
1511,3691
1549,3599
1549,3550
2000,3550
4625,3550
6460,5384
6533,5561
6688,5715
6890,5799
7108,5800
7311,5716
7465,5561
7497,5486
7518,5537
7614,5565
7929,5250
7923,5244
7994,5173
8000,5179
8005,5173
8076,5244
8070,5250
8385,5565
8450,5546
8450,6125
" /> 
</g>
<g style="fill:#00A000; fill-opacity:1.0; 
stroke:#00A000; stroke-width:19.685; stroke-opacity:1; 
stroke-linecap:round; stroke-linejoin:round;">
<polyline style="fill-rule:evenodd;"
points="13450,7200
13297,7200
13297,5617
13000,5320
12929,5391
12929,5250
12632,4952
12539,4977
12470,5174
12481,5382
12539,5522
12632,5547
12929,5250
12929,5391
12702,5617
12727,5710
12924,5779
13132,5768
13272,5710
13297,5617
13297,7200
9474,7200
10212,6462
10212,6462
10277,6364
10299,6250
10300,6250
10300,5692
10442,5550
11000,5550
11000,5549
11114,5527
11114,5527
11212,5462
12212,4462
12212,4462
12277,4364
12299,4250
12300,4250
12300,3503
12328,3491
12491,3328
12579,3115
12580,2885
12491,2671
12328,2508
12115,2420
11885,2419
11671,2508
11508,2671
11500,2691
11491,2671
11328,2508
11115,2420
10885,2419
10856,2431
8474,50
13450,50
13450,4974
13367,4952
13297,5023
13297,4882
13272,4789
13075,4720
12867,4731
12727,4789
12702,4882
13000,5179
13297,4882
13297,5023
13070,5250
13367,5547
13450,5525
13450,7200
" /> 
</g>
<g style="fill:#00A000; fill-opacity:0.0; 
stroke:#00A000; stroke-width:100; stroke-opacity:1; 
stroke-linecap:round; stroke-linejoin:round;">
<polyline fill="none;"
points="13450,7200
13297,7200
13297,5617
13000,5320
12929,5391
12929,5250
12632,4952
12539,4977
12470,5174
12481,5382
12539,5522
12632,5547
12929,5250
12929,5391
12702,5617
12727,5710
12924,5779
13132,5768
13272,5710
13297,5617
13297,7200
9474,7200
10212,6462
10212,6462
10277,6364
10299,6250
10300,6250
10300,5692
10442,5550
11000,5550
11000,5549
11114,5527
11114,5527
11212,5462
12212,4462
12212,4462
12277,4364
12299,4250
12300,4250
12300,3503
12328,3491
12491,3328
12579,3115
12580,2885
12491,2671
12328,2508
12115,2420
11885,2419
11671,2508
11508,2671
11500,2691
11491,2671
11328,2508
11115,2420
10885,2419
10856,2431
8474,50
13450,50
13450,4974
13367,4952
13297,5023
13297,4882
13272,4789
13075,4720
12867,4731
12727,4789
12702,4882
13000,5179
13297,4882
13297,5023
13070,5250
13367,5547
13450,5525
13450,7200
" /> 
</g>
<g style="fill:#FFFFFF; fill-opacity:0.0; 
stroke:#FFFFFF; stroke-width:19.685; stroke-opacity:1; 
stroke-linecap:round; stroke-linejoin:round;">
</g>
<g style="fill:#FFFFFF; fill-opacity:1.0; 
stroke:#FFFFFF; stroke-width:19.685; stroke-opacity:1; 
stroke-linecap:round; stroke-linejoin:round;">
<circle cx="10000" cy="5250" r="150.157" /> 
<circle cx="13000" cy="5250" r="150.157" /> 
<circle cx="7000" cy="2250" r="190.157" /> 
<circle cx="8000" cy="2250" r="190.157" /> 
<circle cx="7000" cy="3250" r="190.157" /> 
<circle cx="8000" cy="3250" r="190.157" /> 
<circle cx="7000" cy="4250" r="190.157" /> 
<circle cx="8000" cy="4250" r="190.157" /> 
<circle cx="7000" cy="5250" r="190.157" /> 
<circle cx="8000" cy="5250" r="190.157" /> 
<circle cx="12000" cy="3000" r="150.157" /> 
<circle cx="11000" cy="3000" r="150.157" /> 
<circle cx="2500" cy="5250" r="150.157" /> 
<circle cx="3500" cy="5250" r="150.157" /> 
<circle cx="4500" cy="5250" r="150.157" /> 
<circle cx="5500" cy="5250" r="150.157" /> 
<circle cx="5500" cy="2250" r="150.157" /> 
<circle cx="4500" cy="2250" r="150.157" /> 
<circle cx="3500" cy="2250" r="150.157" /> 
<circle cx="2500" cy="2250" r="150.157" /> 
<circle cx="1000" cy="3250" r="190.157" /> 
<circle cx="1000" cy="4250" r="190.157" /> 
</g> 
</svg>
